<svg xmlns="http://www.w3.org/2000/svg" width="408.398" height="612.043" viewBox="0 0 408.398 612.043">
  <g id="Grupo_63" data-name="Grupo 63" transform="translate(-6205.411 -1908.306)">
    <path id="Trazado_38" data-name="Trazado 38" d="M6406.56,2107.9c-66.951-51.837-133.55-51.948-200.839.228,51.8-66.508,51.937-132.567.5-199.826,66.356,51.2,132.334,51.375,198.851.937-24.041,28.762-37.943,61.51-37.659,99.329C6367.7,2046.518,6381.427,2079.414,6406.56,2107.9Z" fill="#121721"/>
    <path id="Trazado_39" data-name="Trazado 39" d="M6205.411,2319.491c60.868,53,142.773,50.328,200.58.265-51.7,67.822-51.7,133.71-.329,200.155-78.128-51.8-123.606-51.725-199.83.438C6257.749,2453.029,6257.618,2386.653,6205.411,2319.491Z" fill="#121721"/>
    <path id="Trazado_40" data-name="Trazado 40" d="M6611.528,2114.059c-53.361,61.87-48.429,144.083,2.281,201.479-65.947-51.979-131-53.445-197.826-5.889,21.985-28.8,34.821-60.586,34.359-97.25-.46-36.454-13.589-67.859-36.258-96.292,29.33,23.65,62.053,36.94,99.572,36.448C6550.9,2152.067,6583.195,2138.447,6611.528,2114.059Z" fill="#121721"/>
  </g>
</svg>
