<svg xmlns="http://www.w3.org/2000/svg" viewBox="0 0 212.76 102.24"><g id="Capa_2" data-name="Capa 2"><g id="Capa_1-2" data-name="Capa 1"><path d="M212.42,24.36c-.12-.84-1.29-5.1-1.52-5.71a26.71,26.71,0,0,0-9.12-12.47A30.44,30.44,0,0,0,177.24.59a39.55,39.55,0,0,0-20.32,10.32c-3.07,2.9-6.24,5.7-9.37,8.54l-.86.73V7.33c-.39,0-.67,0-.95.09L136,8.87c-4.23.63-8.45,1.27-12.69,1.85a4.43,4.43,0,0,0-2.48,1.2c-3.42,3.15-6.87,6.28-10.31,9.41-.43.39-.88.77-1.37,1.2-.81-2.24-1.58-4.39-2.36-6.53a2.57,2.57,0,0,0-3.23-1.94l-6.5,1c-4.53.72-9.06,1.46-13.59,2.16-.79.12-7.49,1.26-9.74,1.62-3.85.6-7.71,1.22-11.57,1.8a2.56,2.56,0,0,0-1.43.66q-3.31,3-6.65,6.07c-.77.7-1.55,1.4-2.4,2.15l-.6-.81-2.45-3.51a2.33,2.33,0,0,0-2.17-1.12c-.28,0-.57,0-.86,0l-4.5.53c-3.31.39-6.62.8-9.93,1.17a4.32,4.32,0,0,0-2.89,1.27c-.66.71-1.43,1.32-2.15,2-3.53,3.2-7,6.42-10.59,9.61a2.66,2.66,0,0,0-.93,2c0,2.37-.08,4.74-.1,7.1-.07,5.63-.12,11.25-.18,16.87,0,2.11,0,4.23,0,6.34,0,3.31-.09,6.62-.12,9.93q-.11,10.11-.18,20.21c0,.31,0,.61.08,1l2.34-.39c6.26-1,12.53-2.07,18.81-3.08a2.08,2.08,0,0,0,1.18-.59l6.21-5.65c.27-.24.55-.46.86-.72.22.29.38.48.53.69l1.67,2.38a2.64,2.64,0,0,0,3,1.19c1.14-.26,2.31-.39,3.46-.58,3.6-.6,7.2-1.19,10.79-1.81,2.32-.41,4.61-.93,6.94-1.3,5-.82,10.07-1.61,15.12-2.32A5.07,5.07,0,0,0,88,88.6c1.14-1.15,2.39-2.19,3.66-3.34.34,1,.64,1.9,1,2.88.51,0,1,0,1.47-.1,4.3-.7,8.6-1.42,12.91-2.1a3.77,3.77,0,0,0,2.1-1c1.53-1.42,3.08-2.81,4.62-4.21.22-.21.47-.39.78-.64.21,1.59-.14,3.08.27,4.58l8.85-1.21c2.74-.37,5.48-.77,8.22-1.13a2,2,0,0,0,1.13-.51c1.66-1.53,3.34-3,5-4.56l4.54-4.12.21.07a2.9,2.9,0,0,1,.29.19,30.39,30.39,0,0,0,19.83,5.69,39.41,39.41,0,0,0,11.79-2.64,39.91,39.91,0,0,0,12.72-8.22c3.47-3.23,7-6.39,10.52-9.56a56.72,56.72,0,0,0,6.47-6.59C210.88,43.93,213.82,34.78,212.42,24.36ZM79.14,78.82l-2.75.47c-5,.83-10,1.65-14.93,2.5a.65.65,0,0,1-.75-.32L47.54,62.76c-.08-.12-.17-.23-.33-.44.09,7.48.18,14.84.28,22.27l-18.2,3c0-1,0-2,0-3,0-2.62.07-5.23.1-7.84q.06-6.43.13-12.86l.09-8.91q.09-8.27.17-16.51c0-2.92.06-5.85.1-8.77,0-.52,0-1,0-1.55,0-.31.14-.39.4-.42l9.18-1.09c2.24-.27,4.48-.52,6.72-.81a.67.67,0,0,1,.75.33q8.1,11.65,16.22,23.3l.35.5.1,0c-.21-9.19-.42-18.38-.63-27.63l16.15-2.51Zm65-10.75-14.3,2q-.13-14-.28-27.89h-.09l-.72,2.42Q124.92,57.77,121.09,71a.66.66,0,0,1-.64.57q-6.35,1-12.67,2.08l-.45,0L98.72,46.86h-.11q-.15,14.37-.29,28.8L83.08,78c0-.16,0-.29,0-.42q0-6.21-.08-12.42,0-6,0-12,0-6.48-.07-13l-.09-17.73c0-1,0-1.94,0-2.92,0-.35.1-.48.44-.53l10.53-1.66c3.41-.54,6.83-1.07,10.23-1.64.52-.08.72.05.89.54q4.51,12.49,9,25c0,.11.08.21.16.42.29-1,.56-1.9.82-2.81q3.73-12.91,7.48-25.83a.61.61,0,0,1,.58-.51L140.33,9.9l4.36-.64C144.52,28.88,144.35,48.45,144.17,68.07Zm57.44-16a36.58,36.58,0,0,1-19.52,11.77,29.76,29.76,0,0,1-18.73-1.25c-8.78-3.7-14.21-10.3-16.05-19.67a30.79,30.79,0,0,1,3.26-20.7,37.28,37.28,0,0,1,22.9-19,30.32,30.32,0,0,1,20.2.51,25.74,25.74,0,0,1,15.05,14.69c.08.18.14.36.22.58l-6,.89-12,1.82a.77.77,0,0,1-.86-.32A12.85,12.85,0,0,0,176,16.89a17.59,17.59,0,0,0-10.52,8.5,17.85,17.85,0,0,0-2,14.42c1.39,4.77,4.41,8.09,9.31,9.41a13.72,13.72,0,0,0,9.66-1.08,18.89,18.89,0,0,0,8.67-8.68l-16.91,2.89V28.88l36.08-5.19c.11.87.26,1.7.33,2.53C211.41,36.16,208.08,44.7,201.61,52.08Z"/><path d="M18.34,26a1.49,1.49,0,0,0,1-1.46c0-1.21-1-1.7-2.21-1.7H14.55v6h1.51V26.53h.59c1,0,1,.53,1.08.87a8.15,8.15,0,0,0,.2,1.45h1.46a4.42,4.42,0,0,1-.19-1.47C19.14,26.46,18.78,26.16,18.34,26Zm-1.56-.42h-.72v-1.7h.8c.31,0,.95,0,.95.78C17.81,25.55,17.09,25.55,16.78,25.55Z"/><path d="M21.73,23.24a5.5,5.5,0,0,0-8.65-1.3C9.26,25.46,5.49,29,1.72,32.6A5.53,5.53,0,0,0,9.2,40.75c1-.89,2-1.82,2.94-2.74l8.43-7.91a5.49,5.49,0,0,0,1.86-4.16A5.18,5.18,0,0,0,21.73,23.24Zm-4.85,7a4.35,4.35,0,0,1,0-8.7h0a4.35,4.35,0,0,1,0,8.7Z"/></g></g></svg>