<svg xmlns="http://www.w3.org/2000/svg" width="317.798" height="182.473" viewBox="0 0 317.798 182.473">
  <g id="Grupo_130" data-name="Grupo 130" transform="translate(-248.476 -9399.154)">
    <g id="Grupo_128" data-name="Grupo 128">
      <path id="Trazado_151" data-name="Trazado 151" d="M299.7,9581.627H289.008l-2.8-7.82H261.969l-2.8,7.82H248.476l16.972-47.4H282.73ZM282.839,9564.4l-7.452-20.816h-2.6l-7.453,20.816Z" fill="#fff"/>
      <path id="Trazado_152" data-name="Trazado 152" d="M343.494,9562.608v19.019H333.242v-19.016c0-2.959.636-10.152-9.238-10.152-8.9,0-10.24,5.678-10.24,10.828v18.34H303.448V9543.6h10.316v5.579h.484c2.458-3.351,5.926-5.583,12.738-5.583C343.063,9543.592,343.492,9557.065,343.494,9562.608Z" fill="#fff"/>
      <path id="Trazado_153" data-name="Trazado 153" d="M361.618,9565.9h0l0,.762c0,5.532,2.486,4.731,12.344,4.2v10.062s-2.026.7-12.346.7-10.32-8.479-10.32-14.009v-15.239h-5.077v-8.687H351.3v-10.984h10.322v10.984h12.346v8.688H361.618Z" fill="#fff"/>
      <path id="Trazado_154" data-name="Trazado 154" d="M416.742,9565H386.4c.706,5.084,3.748,7.6,10.421,7.6,6.161,0,9.212-1.712,10.161-4.209h9.99c-1.056,8.163-7.659,13.233-20.151,13.233-13.037,0-20.442-6.554-20.442-19.209,0-12.422,7.593-19.209,20.442-19.209,5.382,0,9.661,1.347,12.876,3.586v-.013c7.351,4.955,8.01,13,7.421,18.215h-.38Zm-29.944-6.814h20.078c-.843-2.849-2.708-5.952-10.051-5.952C391.123,9552.233,387.989,9554.331,386.8,9558.186Z" fill="#fff"/>
      <path id="Trazado_155" data-name="Trazado 155" d="M458.625,9570.348c0,9.436-6.762,11.279-18.438,11.279-8.6,0-14.5-1.562-17.558-4.64-2.631-2.655-2.607-5.866-2.59-7.782l0-.737h10.592v.327c0,3.25,2.42,4.7,9.279,4.7,4.127,0,8.087-.519,8.087-2.99,0-2.855-3.687-3.4-7.78-3.882-.553-.065-1.1-.13-1.613-.2-10.939-1.443-17.714-3.865-17.714-11.448,0-5.307,3.064-11.635,17.657-11.635,15.756,0,19.067,6.977,19.067,12.826v.325h-10.5v-.328c0-2.994-2.546-4.579-8.567-4.579-5.767,0-6.971,2.089-6.971,3.259,0,1.672,1.178,2.609,7.8,3.6l.856.128C448.855,9559.858,458.625,9561.313,458.625,9570.348Z" fill="#fff"/>
      <path id="Trazado_156" data-name="Trazado 156" d="M494,9549.16v-5.589h10.32v38.056H494v-5.31h-.323c-2.575,3.309-6.915,5.31-14.06,5.31-15.962,0-17.759-13.9-17.759-19.028,0-5.545,1.7-19.027,17.788-19.027,7.034,0,11.34,2.217,13.921,5.589Zm-.645,13.438c0-5.15-1.822-10.155-10.728-10.155-9.88,0-10.923,7.194-10.923,10.155,0,2.735,1.106,10.157,10.906,10.157C491.535,9572.756,493.355,9568.356,493.355,9562.6Z" fill="#fff"/>
      <path id="Trazado_157" data-name="Trazado 157" d="M509.306,9581.627v-48.8h10.268v48.8Z" fill="#fff"/>
      <path id="Trazado_158" data-name="Trazado 158" d="M555.954,9549.16v-5.589h10.32v38.056h-10.32v-5.31h-.323c-2.575,3.309-6.915,5.31-14.061,5.31-15.961,0-17.759-13.9-17.759-19.028,0-5.545,1.7-19.027,17.788-19.027,7.034,0,11.34,2.217,13.922,5.589Zm-.645,13.438c0-5.15-1.823-10.155-10.728-10.155-9.881,0-10.923,7.194-10.923,10.155,0,2.735,1.1,10.157,10.9,10.157C553.488,9572.756,555.309,9568.356,555.309,9562.6Z" fill="#fff"/>
    </g>
    <g id="Grupo_129" data-name="Grupo 129">
      <path id="Trazado_159" data-name="Trazado 159" d="M426.179,9410l66.773,43.551,17.641-11.743-68.067-42.655Z" fill="#fff"/>
      <path id="Trazado_160" data-name="Trazado 160" d="M408.38,9508.793l16.114-11.059L408.38,9487.1l.237-32.729,41.39,26.7,17.22-11.454-41-26.619L426.179,9410,341.4,9464.874Z" fill="#fff"/>
    </g>
  </g>
</svg>
