<svg xmlns="http://www.w3.org/2000/svg" width="777.993" height="744.915" viewBox="0 0 777.993 744.915">
  <path id="Trazado_125" data-name="Trazado 125" d="M264.6,991.988c112.565,2.574,215.083,6.807,314.674,35.307a279.717,279.717,0,0,1,56.255,22.813c34.289,18.635,34.694,43.88-.068,61.982a342.975,342.975,0,0,1-75.759,28.276c-107.468,26.49-217.146,30.543-327.233,28.94-28.693-.418-49.232,12.814-56.815,35.967-11.712,35.756,11.495,68.559,50.518,73.124,35.039,4.1,70.141,8.435,104.777,14.984,35.265,6.668,69.753,17.087,98.638,39.872,25.771,20.329,26.872,45-.793,62.789-23.577,15.162-50.269,27.934-77.346,34.629-41.122,10.168-83.666,14.954-125.8,20.544-38.3,5.081-61.542,37.367-50.144,72.16,7.341,22.409,28.456,36.435,55.157,36.883,49.822.835,99.751.018,149.438,3.087,76.847,4.746,153.4,13.271,226.362,40.187a163.883,163.883,0,0,1,40.64,21.783c19.214,14.287,19.654,33.8-.575,46.4a275.919,275.919,0,0,1-65.517,29.861c-85.5,25.761-173.931,31.93-262.575,34.488-105.217,3.037-210.078-1.569-313.263-24.034-30.027-6.537-59.328-17.355-88.05-28.548-15.455-6.023-32.428-15.428-32.414-35.31.014-19.2,16.8-27.293,31.4-34.686C-43.255,1592.9.935,1584.134,45.4,1576.7c18.129-3.032,36.479-4.824,54.525-8.248,24.985-4.742,41.9-19.792,49.1-44.125,6.545-22.115,2.831-43.551-15.653-58.026-10.372-8.122-24.77-13.574-37.968-15.181-51.493-6.268-103.012-12.158-151.321-32.318a191.443,191.443,0,0,1-44.764-26.1c-21.19-16.794-20.194-38.648.331-56.741,22.848-20.143,50.816-30.662,79.521-36.983,39.585-8.715,79.936-14.054,120.055-20.21,25.542-3.918,45.043-18.709,50.347-41.689,5.757-24.937.938-47.907-20.394-63.745-8.863-6.58-20.722-10.743-31.774-12.487-53.534-8.447-107.527-14.764-158.411-34.775a183.886,183.886,0,0,1-40.653-21.793c-19.464-14.159-19.907-33.371.253-46.21a264.4,264.4,0,0,1,61.23-28.893c64.012-20.332,130.462-27.8,197.187-32.234C196.1,994.339,235.294,993.294,264.6,991.988Z" transform="translate(116.392 -991.988)" fill="#df4b12"/>
</svg>
