<svg xmlns="http://www.w3.org/2000/svg" width="312.246" height="467.946" viewBox="0 0 312.246 467.946">
  <g id="Grupo_112" data-name="Grupo 112" transform="translate(-2308.08 -1439.879)">
    <path id="Trazado_122" data-name="Trazado 122" d="M2466.535,1755.219c51.188,39.632,102.107,39.717,153.554-.175-39.6,50.85-39.709,101.356-.38,152.781-50.733-39.145-101.177-39.28-152.034-.717,18.381-21.99,29.01-47.028,28.792-75.943C2496.249,1802.152,2485.75,1777,2466.535,1755.219Z"/>
    <path id="Trazado_123" data-name="Trazado 123" d="M2620.326,1593.447c-46.537-40.519-109.159-38.478-153.356-.2,39.529-51.855,39.527-102.23.251-153.031,59.734,39.608,94.505,39.546,152.784-.335C2580.31,1491.349,2580.41,1542.1,2620.326,1593.447Z"/>
    <path id="Trazado_124" data-name="Trazado 124" d="M2309.824,1750.513c40.8-47.3,37.027-110.161-1.744-154.044,50.42,39.742,100.162,40.863,151.251,4.5-16.81,22.018-26.623,46.322-26.27,74.354.351,27.871,10.389,51.883,27.722,73.621-22.425-18.082-47.444-28.242-76.13-27.867C2356.176,1721.454,2331.486,1731.867,2309.824,1750.513Z"/>
  </g>
</svg>
