<svg xmlns="http://www.w3.org/2000/svg" width="65.989" height="65.988" viewBox="0 0 65.989 65.988">
  <g id="Ilustración_34" data-name="Ilustración 34" transform="translate(-2173.478 -9130.734)">
    <g id="Grupo_222" data-name="Grupo 222">
      <g id="Grupo_221" data-name="Grupo 221">
        <path id="Trazado_236" data-name="Trazado 236" d="M2222.108,9159.433c-.046-1.63-.087-3.268-.279-4.886a6.679,6.679,0,0,0-5.548-6.044,22.737,22.737,0,0,0-4.674-.362q-5.1-.06-10.21-.01a47.236,47.236,0,0,0-4.987.277,6.679,6.679,0,0,0-6.038,5.557,23.167,23.167,0,0,0-.362,4.774q-.044,5.747.025,11.5a28.021,28.021,0,0,0,.309,3.967,6.631,6.631,0,0,0,5.4,5.647,23.04,23.04,0,0,0,4.808.376q6.067.035,12.136-.048a21.335,21.335,0,0,0,3.723-.358,6.354,6.354,0,0,0,4.731-3.609,8.851,8.851,0,0,0,.835-3.595c.091-2.8.142-5.609.209-8.413h-.066c0-1.589.035-3.179-.01-4.768m-16.1,14.83a10.079,10.079,0,1,1,10.121-10.037,10.065,10.065,0,0,1-10.121,10.037m10.45-18.2a2.356,2.356,0,1,1,2.421-2.325,2.331,2.331,0,0,1-2.421,2.325" fill="#fff"/>
        <path id="Trazado_237" data-name="Trazado 237" d="M2206.473,9130.734a32.994,32.994,0,1,0,32.994,32.994,32.994,32.994,0,0,0-32.994-32.994m19.076,41.677a12.625,12.625,0,0,1-1.448,5.813,10.149,10.149,0,0,1-7.14,5.134,24.516,24.516,0,0,1-4.6.4c-2.2.045-4.394.07-6.591.057q-3.954-.025-7.907-.137a12.65,12.65,0,0,1-5.818-1.433,10.084,10.084,0,0,1-5.1-6.892,24.221,24.221,0,0,1-.463-5c-.042-1.96-.076-3.921-.054-5.881.035-3.1.061-6.2.2-9.289a10.976,10.976,0,0,1,2.222-6.344,10.02,10.02,0,0,1,6.666-3.876,43.617,43.617,0,0,1,4.912-.36c1.959-.066,3.921-.066,5.881-.051,2.659.021,5.318.056,7.975.139a12.4,12.4,0,0,1,6.167,1.646,10.17,10.17,0,0,1,4.779,6.94,27.358,27.358,0,0,1,.413,5.246c.028,1.892.006,3.785.006,5.679h.073c-.054,2.737-.085,5.474-.17,8.21" fill="#fff"/>
        <path id="Trazado_238" data-name="Trazado 238" d="M2206.136,9157.656a6.528,6.528,0,1,0,6.444,6.551,6.533,6.533,0,0,0-6.444-6.551" fill="#fff"/>
      </g>
    </g>
  </g>
</svg>
