<svg xmlns="http://www.w3.org/2000/svg" width="67.02" height="67.021" viewBox="0 0 67.02 67.021">
  <g id="Grupo_120" data-name="Grupo 120" transform="translate(-2252.97 -9130.184)">
    <path id="Trazado_138" data-name="Trazado 138" d="M2282.484,9169.972l10.9-6.277-10.9-6.278Zm0,0" fill="#fff"/>
    <path id="Trazado_139" data-name="Trazado 139" d="M2286.48,9130.184a33.51,33.51,0,1,0,33.51,33.511,33.515,33.515,0,0,0-33.51-33.511Zm20.939,33.545s0,6.8-.862,10.073a5.248,5.248,0,0,1-3.691,3.69c-3.277.863-16.386.863-16.386.863s-13.074,0-16.385-.9a5.247,5.247,0,0,1-3.691-3.691c-.863-3.241-.863-10.072-.863-10.072s0-6.795.863-10.072a5.352,5.352,0,0,1,3.691-3.726c3.277-.862,16.385-.862,16.385-.862s13.109,0,16.386.9a5.247,5.247,0,0,1,3.691,3.691c.9,3.277.862,10.106.862,10.106Zm0,0" fill="#fff"/>
  </g>
</svg>
