<svg xmlns="http://www.w3.org/2000/svg" width="383.528" height="220.214" viewBox="0 0 383.528 220.214">
  <g id="Grupo_127" data-name="Grupo 127" transform="translate(-185.306 -153.566)">
    <g id="Grupo_125" data-name="Grupo 125">
      <path id="Trazado_141" data-name="Trazado 141" d="M247.127,373.78H234.221l-3.378-9.438H201.591l-3.379,9.438H185.306l20.482-57.207h20.857Zm-20.35-20.792-8.994-25.121H214.65l-8.994,25.121Z"/>
      <path id="Trazado_142" data-name="Trazado 142" d="M299.977,350.827V373.78H287.6V350.83c0-3.571.768-12.251-11.148-12.251-10.741,0-12.358,6.852-12.358,13.067V373.78H251.649v-45.9H264.1v6.732h.584c2.967-4.043,7.152-6.738,15.372-6.738C299.457,327.877,299.975,344.138,299.977,350.827Z"/>
      <path id="Trazado_143" data-name="Trazado 143" d="M321.849,354.8h0l0,.919c0,6.676,3,5.711,14.9,5.067V372.93s-2.446.85-14.9.85-12.455-10.234-12.455-16.907V338.481h-6.127V328h6.127V314.741h12.457V328h14.9v10.484h-14.9Z"/>
      <path id="Trazado_144" data-name="Trazado 144" d="M388.375,353.714H351.762c.852,6.134,4.523,9.175,12.576,9.175,7.436,0,11.118-2.067,12.262-5.08h12.057c-1.275,9.852-9.243,15.971-24.319,15.971-15.733,0-24.67-7.91-24.67-23.183,0-14.991,9.164-23.182,24.67-23.182,6.495,0,11.659,1.625,15.54,4.328v-.016c8.871,5.981,9.666,15.692,8.955,21.983h-.458Zm-36.137-8.224h24.23c-1.018-3.438-3.268-7.184-12.13-7.184C357.456,338.306,353.674,340.838,352.238,345.49Z"/>
      <path id="Trazado_145" data-name="Trazado 145" d="M438.921,360.168c0,11.386-8.162,13.612-22.252,13.612-10.374,0-17.5-1.886-21.189-5.6-3.176-3.2-3.146-7.079-3.127-9.392l.005-.89h12.781v.395c0,3.923,2.922,5.672,11.2,5.672,4.98,0,9.76-.624,9.76-3.608,0-3.446-4.449-4.1-9.389-4.685-.668-.078-1.326-.157-1.947-.238-13.2-1.743-21.378-4.664-21.378-13.815,0-6.406,3.7-14.042,21.31-14.042,19.013,0,23.009,8.419,23.009,15.478v.393H425.032v-.395c0-3.614-3.072-5.527-10.338-5.527-6.96,0-8.413,2.521-8.413,3.933,0,2.018,1.42,3.149,9.414,4.347l1.033.155C427.129,347.508,438.921,349.264,438.921,360.168Z"/>
      <path id="Trazado_146" data-name="Trazado 146" d="M481.612,334.6v-6.744h12.455V373.78H481.612v-6.409h-.39c-3.107,3.993-8.345,6.409-16.968,6.409-19.263,0-21.432-16.78-21.432-22.964,0-6.692,2.05-22.963,21.467-22.963,8.489,0,13.685,2.675,16.8,6.744Zm-.779,16.219c0-6.216-2.2-12.257-12.946-12.257-11.924,0-13.183,8.684-13.183,12.257,0,3.3,1.335,12.257,13.162,12.257C478.637,363.073,480.833,357.763,480.833,350.816Z"/>
      <path id="Trazado_147" data-name="Trazado 147" d="M500.083,373.78V314.885h12.392V373.78Z"/>
      <path id="Trazado_148" data-name="Trazado 148" d="M556.379,334.6v-6.744h12.455V373.78H556.379v-6.409h-.389c-3.108,3.993-8.345,6.409-16.969,6.409-19.263,0-21.432-16.78-21.432-22.964,0-6.692,2.05-22.963,21.467-22.963,8.489,0,13.685,2.675,16.8,6.744Zm-.778,16.219c0-6.216-2.2-12.257-12.947-12.257-11.924,0-13.182,8.684-13.182,12.257,0,3.3,1.334,12.257,13.16,12.257C553.4,363.073,555.6,357.763,555.6,350.816Z"/>
    </g>
    <g id="Grupo_126" data-name="Grupo 126">
      <path id="Trazado_149" data-name="Trazado 149" d="M399.763,166.658l80.584,52.557,21.29-14.172-82.145-51.477Z" fill="#121721"/>
      <path id="Trazado_150" data-name="Trazado 150" d="M378.283,285.881l19.446-13.346L378.283,259.7l.286-39.5,49.951,32.221L449.3,238.6l-49.475-32.125-.063-39.815L297.445,232.879Z" fill="#121721"/>
    </g>
  </g>
</svg>
