<svg xmlns="http://www.w3.org/2000/svg" viewBox="0 0 141.29 118.07"><g id="Capa_2" data-name="Capa 2"><g id="Capa_1-2" data-name="Capa 1"><path d="M70.54,94.63H.39l-.22,0c-.05,0-.14-.1-.15-.15s0-.14,0-.22V1.85C0,1.28,0,.71,0,.14c0,0,0-.05,0-.07S.08,0,.11.06a2.54,2.54,0,0,1,0,.29c0,.27.05.54.07.81,0,.1,0,.2,0,.3,0,.74.14,1.48.21,2.22,0,.54.12,1.08.19,1.62S.81,6.43.9,7s.21,1.32.33,2c.17.85.34,1.7.52,2.55.44,2,1,4,1.58,5.95a73.79,73.79,0,0,0,11.2,22.09A74.41,74.41,0,0,0,46.22,64.2,72.8,72.8,0,0,0,56.3,67.49c1.51.38,2.84.66,4.51,1,.73.14,1.46.25,2.19.38.51.08,1,.13,1.55.21s1.23.13,1.84.22a4.57,4.57,0,0,0,.52,0l1,.1.23,0c1.21.06,2.42.17,3.63.2,1.74,0,3.47,0,5.2,0,.6,0,1.19,0,1.78-.09l.6,0a14.73,14.73,0,0,0,1.48-.11c.17,0,.34,0,.52-.05l.88-.09.3,0c1.11-.1,2.21-.27,3.31-.44s1.95-.32,2.92-.51c1.22-.25,2.42-.52,3.63-.82a72.69,72.69,0,0,0,8.41-2.67,73.46,73.46,0,0,0,18.59-10.44A74.2,74.2,0,0,0,138.84,32q1-1.77,1.92-3.6A1,1,0,0,1,141,28l.07,0a.08.08,0,0,1,.06,0,.33.33,0,0,1,0,.14c0,.27,0,.54,0,.81V93.54a5.42,5.42,0,0,1,0,.9s-.1.14-.14.15l-.15,0H70.54Zm50.12-5.91h0c0,.76,0,1.53,0,2.3,0,.15,0,.29,0,.44a.28.28,0,0,0,.18.21,2.75,2.75,0,0,0,.81,0l.07,0s.09-.06.1-.1a1.54,1.54,0,0,0,0-.3v-2.3c0-.22,0-.44,0-.66s.05-.18.1-.17a.25.25,0,0,1,.13,0c.14.14.27.29.4.44l2.28,2.64a3,3,0,0,0,.3.32.37.37,0,0,0,.19.11,2,2,0,0,0,.73,0c.07,0,.16-.09.16-.14s0-.29,0-.44V86.33c0-.12,0-.25,0-.37a.34.34,0,0,0,0-.14.17.17,0,0,0-.11-.09,3,3,0,0,0-.73,0c-.23,0-.3.12-.31.33v3a.94.94,0,0,1,0,.37s-.08,0-.12,0-.16-.12-.22-.19c-.85-1-1.69-2-2.53-3l-.35-.39a.3.3,0,0,0-.19-.1,2.3,2.3,0,0,0-.74,0,.19.19,0,0,0-.1.1.89.89,0,0,0,0,.36Zm12.82,0a2.63,2.63,0,0,0-.15-1,3.13,3.13,0,0,0-3.06-2.16,2.9,2.9,0,0,0-.88.15,3.1,3.1,0,0,0-2.19,2.73,4,4,0,0,0,.07,1A3.1,3.1,0,0,0,130,91.8a3.31,3.31,0,0,0,1.46-.19A3.08,3.08,0,0,0,133.48,88.7Zm3.25,3.12.6,0a2.33,2.33,0,0,0,.91-.3,1.64,1.64,0,0,0,.79-.94,1.65,1.65,0,0,0,.09-.73,1.48,1.48,0,0,0-.54-1.1,1.73,1.73,0,0,0-.57-.34,3.41,3.41,0,0,0-.57-.16L136.5,88a2.85,2.85,0,0,1-.5-.14.49.49,0,0,1-.3-.4.69.69,0,0,1,.46-.76l.21-.06a1,1,0,0,1,.52,0l.21.06a1,1,0,0,1,.53.39,2.13,2.13,0,0,1,.16.25.22.22,0,0,0,.24.13,2.59,2.59,0,0,0,.86-.18.19.19,0,0,0,.08-.19.17.17,0,0,0,0-.07,2.1,2.1,0,0,0-1-1.16,2.74,2.74,0,0,0-.84-.26,3,3,0,0,0-1.47.12,2.23,2.23,0,0,0-.47.22,1.69,1.69,0,0,0-.79,1.58,1.52,1.52,0,0,0,.83,1.31,2.48,2.48,0,0,0,.62.24l.88.17a7.55,7.55,0,0,1,.79.19.57.57,0,0,1,.39.7.61.61,0,0,1-.23.37.81.81,0,0,1-.46.21,1.67,1.67,0,0,1-1-.09,1.11,1.11,0,0,1-.46-.37c-.05-.09-.11-.17-.15-.26a.26.26,0,0,0-.3-.16l-.87.19c-.07,0-.13.16-.11.24a1.75,1.75,0,0,0,.74,1.08,2.52,2.52,0,0,0,1,.41C136.29,91.79,136.51,91.8,136.73,91.82ZM109,85.69h-1l-.59,0a.25.25,0,0,0-.21.18s0,0,0,.07c-.06.87-.09,1.73-.1,2.6,0,0,0,.1,0,.15a.24.24,0,0,0,.21.18l.14,0h1.27l.59,0a.83.83,0,0,1,.73.87.88.88,0,0,1-.53.82,1,1,0,0,1-.29.08,1.15,1.15,0,0,1-.58,0,1,1,0,0,1-.58-.55,3.45,3.45,0,0,1-.12-.43.21.21,0,0,0-.17-.12,4.3,4.3,0,0,0-.86.19.14.14,0,0,0-.09.11.42.42,0,0,0,0,.22c0,.14.07.29.12.43a1.63,1.63,0,0,0,.54.78,2.09,2.09,0,0,0,1.07.48,3.78,3.78,0,0,0,.89,0,2.11,2.11,0,0,0,.77-.25,1.83,1.83,0,0,0,.81-.84,1.93,1.93,0,0,0,.18-.56,2,2,0,0,0-.21-1.37,1.75,1.75,0,0,0-1.23-.88,3.64,3.64,0,0,0-.74-.07l-.51,0a.26.26,0,0,1-.21-.18,3,3,0,0,1,0-.6.26.26,0,0,1,.2-.19l.22,0h1.86a.78.78,0,0,0,.21,0,.13.13,0,0,0,.1-.09s0,0,0-.07c0-.23,0-.45,0-.67a.24.24,0,0,0-.25-.22H109Zm10.32,6,.49,0a.14.14,0,0,0,.11-.16l-.15-.41c-.42-1-.83-1.91-1.25-2.86-.31-.73-.62-1.46-.94-2.18a1,1,0,0,0-.15-.26.15.15,0,0,0-.12-.07,3.32,3.32,0,0,0-.89,0,.19.19,0,0,0-.12.07,2.11,2.11,0,0,0-.18.33q-1.11,2.55-2.21,5.11a2.31,2.31,0,0,0-.1.28s.06.14.12.16a2.29,2.29,0,0,0,.52,0c.57,0,.56,0,.77-.49l.2-.48a1.18,1.18,0,0,1,.11-.19.13.13,0,0,1,.12-.08c.12,0,.24,0,.37,0h2a.27.27,0,0,1,.23.16c.08.16.14.32.21.48l.21.47a.24.24,0,0,0,.18.13C119,91.69,119.13,91.69,119.31,91.7Zm-15.28,0h1.78a.26.26,0,0,0,.29-.26c0-.2,0-.4,0-.59a.25.25,0,0,0-.25-.23h-1.63c-.1,0-.18,0-.16-.11a.35.35,0,0,1,0-.13c.22-.23.45-.45.68-.68l.61-.65a2.81,2.81,0,0,0,.42-.6,2,2,0,0,0,.21-1.3,2.11,2.11,0,0,0-.14-.49,1.76,1.76,0,0,0-.76-.79,2.34,2.34,0,0,0-1.22-.26l-.22,0-.29.06a1.79,1.79,0,0,0-.74.34,1.77,1.77,0,0,0-.69,1.18.76.76,0,0,0,0,.15.27.27,0,0,0,.13.17,3,3,0,0,0,.72.16.21.21,0,0,0,.23-.15,3.59,3.59,0,0,1,.12-.35,1.32,1.32,0,0,1,.16-.25.81.81,0,0,1,.44-.25.94.94,0,0,1,.78.13.46.46,0,0,1,.16.15.86.86,0,0,1,.19.69,1.53,1.53,0,0,1-.38.8l-.41.43-1.73,1.72a2.18,2.18,0,0,0-.25.28.3.3,0,0,0-.08.2c0,.15,0,.3,0,.44a.3.3,0,0,0,.14.17l.22,0Zm20-6.76h.15a.81.81,0,0,0,.58-.3,1,1,0,0,0,.22-.69.33.33,0,0,0-.13-.17,1.14,1.14,0,0,0-.45,0,.29.29,0,0,0-.12.07s-.06.08-.1.11a.35.35,0,0,1-.4.09,2.21,2.21,0,0,1-.27-.12,2.48,2.48,0,0,0-.35-.13.89.89,0,0,0-.89.22.87.87,0,0,0-.29.73.25.25,0,0,0,.14.16,1.3,1.3,0,0,0,.44,0,.29.29,0,0,0,.18-.11.39.39,0,0,1,.53-.11l.26.13A1,1,0,0,0,124.08,84.93Z"/><path d="M141.29,108.76a9.34,9.34,0,0,1-18.06,3.29,9.85,9.85,0,0,1-.49-1.94,9.2,9.2,0,0,1-.1-1.48,9.32,9.32,0,0,1,2.59-6.39,9.1,9.1,0,0,1,4.29-2.54,6.72,6.72,0,0,1,1.17-.23l.44,0a5.32,5.32,0,0,1,1.26,0,10.89,10.89,0,0,1,1.62.22,9.2,9.2,0,0,1,5.06,3.06,9.31,9.31,0,0,1,2,3.8A10.71,10.71,0,0,1,141.29,108.76Zm-9.3,5.15a4.79,4.79,0,0,0,1.92-.4,5.2,5.2,0,0,0,3.1-5.93,5.31,5.31,0,0,0-1.95-3,5.17,5.17,0,0,0-2.8-1,4.86,4.86,0,0,0-2,.28,5.23,5.23,0,0,0-3.47,4.35,5,5,0,0,0,.26,2.27A5.22,5.22,0,0,0,132,113.91Z"/><path d="M102.12,108.93c0,2.65,0,5.3,0,7.95,0,.25,0,.49,0,.74a.48.48,0,0,1-.38.41,1.31,1.31,0,0,1-.59,0,.5.5,0,0,1-.26-.13l-.38-.35-4.35-4.37-4.76-4.8a6.51,6.51,0,0,0-.54-.51.11.11,0,0,0-.14,0,.16.16,0,0,0-.07.12c0,.07,0,.14,0,.22s0,.44,0,.67v7.72c0,.22,0,.45,0,.67a.56.56,0,0,1-.06.21.42.42,0,0,1-.32.28.78.78,0,0,1-.22,0h-2.9l-.14,0a.53.53,0,0,1-.41-.39,1.64,1.64,0,0,1,0-.22c0-.22,0-.45,0-.67q0-7.9,0-15.82c0-.27,0-.54,0-.82A.51.51,0,0,1,87,99.4a1.67,1.67,0,0,1,.59,0,.46.46,0,0,1,.2.09l.44.4,8.34,8,1.08,1a1.3,1.3,0,0,0,.23.18s.11,0,.14,0a.21.21,0,0,0,0-.14c0-.25,0-.5,0-.74v-7.28c0-.22,0-.45,0-.67a1.64,1.64,0,0,1,0-.22.5.5,0,0,1,.41-.38l.22,0h2.75l.22,0a.52.52,0,0,1,.45.43c0,.23,0,.45,0,.67,0,1.61,0,3.22,0,4.83Z"/><path d="M67.18,105.8v5a7,7,0,0,1-1.71,4.57,7.3,7.3,0,0,1-4.06,2.45,7,7,0,0,1-2.14.18,7.39,7.39,0,0,1-6.3-4.42,6.19,6.19,0,0,1-.53-2.08c0-.34,0-.69,0-1V100.7c0-.19,0-.39,0-.59a.86.86,0,0,1,.07-.21.48.48,0,0,1,.36-.24l.22,0h2.82l.23,0a.51.51,0,0,1,.44.43,1.64,1.64,0,0,1,0,.22v9.81c0,.32,0,.64,0,1a3.12,3.12,0,0,0,1.89,2.56,3.22,3.22,0,0,0,2,.16,3.09,3.09,0,0,0,2.25-2,3.3,3.3,0,0,0,.22-1.08c0-.25,0-.5,0-.74v-9.22a4.58,4.58,0,0,1,0-.74.46.46,0,0,1,.26-.34l.14,0h3.05l.22,0a.52.52,0,0,1,.47.49c0,.23,0,.45,0,.67Z"/><path d="M71.35,108.68v-8c0-.22,0-.44,0-.67a.48.48,0,0,1,.39-.39l.22,0h9.88l.74,0a.51.51,0,0,1,.45.42,1.79,1.79,0,0,1,0,.23v2.52s0,.1,0,.15a.54.54,0,0,1-.42.46l-.22,0H76.18a2.89,2.89,0,0,0-.59,0,.24.24,0,0,0-.19.2c0,.1,0,.2,0,.3v1.33c0,.33,0,.65,0,1a.83.83,0,0,0,0,.22.19.19,0,0,0,.1.1.87.87,0,0,0,.36,0h5.2l.29,0a.51.51,0,0,1,.39.4c0,.1,0,.2,0,.3v2.38a2.83,2.83,0,0,1,0,.29.47.47,0,0,1-.38.4c-.15,0-.3,0-.45,0H75.81a1.35,1.35,0,0,0-.29,0,.18.18,0,0,0-.1.11.32.32,0,0,0,0,.14v2.9s0,0,0,.07a.27.27,0,0,0,.19.2l.22,0H82a3.72,3.72,0,0,1,.67,0,.52.52,0,0,1,.42.46c0,.1,0,.2,0,.29V117c0,.13,0,.25,0,.37a.53.53,0,0,1-.39.41l-.22,0H71.82a.52.52,0,0,1-.47-.49v-8.61Z"/><path d="M1,108.71v-7.87c0-.25,0-.5,0-.74a.49.49,0,0,1,.43-.44l.6,0h9.58l.66,0a.54.54,0,0,1,.41.39,1.8,1.8,0,0,1,0,.22v2.6s0,.1,0,.15a.56.56,0,0,1-.39.41.78.78,0,0,1-.22,0H5.75a1.8,1.8,0,0,0-.52,0c-.05,0-.14.11-.14.16a.77.77,0,0,0,0,.15v2.37c0,.1,0,.2,0,.3s.1.14.15.15a1.46,1.46,0,0,0,.22,0h5.05l.52,0a.46.46,0,0,1,.31.18.57.57,0,0,1,.1.19,2.31,2.31,0,0,1,0,.37v2.3c0,.13,0,.25,0,.37a.46.46,0,0,1-.35.35.78.78,0,0,1-.22,0H5.67a1.66,1.66,0,0,0-.44,0,.25.25,0,0,0-.14.16s0,.09,0,.14v2.82a.77.77,0,0,0,0,.15s.11.14.15.15l.22,0h6.16l.67,0a.54.54,0,0,1,.45.44c0,.07,0,.14,0,.22,0,.81,0,1.63,0,2.45a1.36,1.36,0,0,1,0,.29.49.49,0,0,1-.41.37l-.6,0H2.13l-.66,0a.46.46,0,0,1-.32-.18.34.34,0,0,1-.09-.19l0-.22v-8.47Z"/><path d="M33.88,108.79a9.33,9.33,0,0,1,5.58-8.62,9.07,9.07,0,0,1,2.64-.71,7.42,7.42,0,0,1,1.41-.08,9.4,9.4,0,0,1,2.77.46,8.32,8.32,0,0,1,2.36,1.24,6.65,6.65,0,0,1,.9.77.51.51,0,0,1,0,.62s-.09.11-.14.17l-1.81,1.87-.17.14a.5.5,0,0,1-.49,0l-.36-.27a4.93,4.93,0,0,0-1.28-.73,5.25,5.25,0,0,0-2-.37,4.84,4.84,0,0,0-4.06,2.1,5.23,5.23,0,0,0-.92,2.17,6.18,6.18,0,0,0-.07,1.55,5.28,5.28,0,0,0,1.21,3,4.92,4.92,0,0,0,2.45,1.6,5.12,5.12,0,0,0,2.43.1,5.91,5.91,0,0,0,1.73-.64,5.08,5.08,0,0,0,.68-.46,1.6,1.6,0,0,1,.19-.11.57.57,0,0,1,.49.06c.07.07.15.13.22.21l1.73,1.83.14.18a.58.58,0,0,1,0,.56.21.21,0,0,0,0,.06,1.29,1.29,0,0,1-.16.17,8.76,8.76,0,0,1-3.94,2.12,9.08,9.08,0,0,1-2.65.26,9.29,9.29,0,0,1-8.49-6.45A8.82,8.82,0,0,1,33.88,108.79Z"/><path d="M114.71,118.06a9.4,9.4,0,0,1-7.8-4,9.06,9.06,0,0,1-1.48-3.54,9,9,0,0,1-.17-2.07A9.34,9.34,0,0,1,112,99.76a10.08,10.08,0,0,1,1.45-.3,9.45,9.45,0,0,1,1.41-.08,10.87,10.87,0,0,1,2.27.3,8,8,0,0,1,2.25,1,9.26,9.26,0,0,1,1.42,1.07,1.21,1.21,0,0,1,.16.16.48.48,0,0,1,0,.55.5.5,0,0,1-.08.12l-2,2a.47.47,0,0,1-.19.12.42.42,0,0,1-.42,0,2.1,2.1,0,0,1-.3-.22,5.25,5.25,0,0,0-2.13-1,3.11,3.11,0,0,0-.44-.07,6.63,6.63,0,0,0-1.26,0,4.09,4.09,0,0,0-1.15.26,4.94,4.94,0,0,0-2.58,2.14,5.59,5.59,0,0,0-.33,5.13,5,5,0,0,0,2.68,2.65,4.92,4.92,0,0,0,2.91.29,5.37,5.37,0,0,0,2.36-1l.18-.13a.55.55,0,0,1,.43-.08l.13,0a1.24,1.24,0,0,1,.18.14l1.88,2a1.25,1.25,0,0,1,.09.12.56.56,0,0,1,0,.56,2.09,2.09,0,0,1-.2.22,8.63,8.63,0,0,1-2.53,1.65A9.16,9.16,0,0,1,116,118,8.16,8.16,0,0,1,114.71,118.06Z"/><path d="M20.28,106.92c0,2,0,4,0,6,0,.25,0,.5,0,.74a.28.28,0,0,0,.27.3h5.78a1.46,1.46,0,0,1,.22,0,.48.48,0,0,1,.35.36,2.64,2.64,0,0,1,0,.29v2.45c0,.1,0,.2,0,.3a.45.45,0,0,1-.35.34l-.22,0H16.69a.51.51,0,0,1-.47-.49c0-.07,0-.15,0-.22V100.88c0-.24,0-.49,0-.74a.51.51,0,0,1,.21-.38.61.61,0,0,1,.2-.09,1.36,1.36,0,0,1,.29,0h2.67l.3,0a.51.51,0,0,1,.35.35c0,.07,0,.14,0,.22v6.68Z"/><path d="M128.42,88.6a1.71,1.71,0,0,1,.16-.74,1.86,1.86,0,0,1,1.75-1.14,1.82,1.82,0,0,1,1.29.48,1.9,1.9,0,0,1,.47.65,2.13,2.13,0,0,1,.09,1.45,1.81,1.81,0,0,1-.82,1.09,1.92,1.92,0,0,1-2.94-1.79Z"/><path d="M116.73,89.31a2,2,0,0,1-.53,0,.2.2,0,0,1-.11-.17s0-.05,0-.07c.21-.53.41-1.06.65-1.57a.15.15,0,0,1,.12-.08s.08,0,.1.07c.23.54.47,1.08.65,1.64a.14.14,0,0,1-.1.17.7.7,0,0,1-.14,0Z"/></g></g></svg>